<svg viewBox="0 0 24 24" xmlns="http://www.w3.org/2000/svg">
<path fill-rule="evenodd" clip-rule="evenodd" d="M2.3 6.07227C2.3 5.57783 2.83926 5 3.37226 5H20.5708C21.143 5 21.643 5.57783 21.643 6.07227V18.9162C21.643 19.4639 21.1198 20 20.5592 20H3.38383C2.8624 20 2.3 19.4639 2.3 18.9162V6.07227ZM6.43828 8.83176H11.0364L11.0364 10.671H7.3579V14.3495H11.0364L11.0364 16.1887H6.43828C5.97847 16.1887 5.51866 15.7289 5.51866 15.2691V9.75137C5.51866 9.29157 5.97847 8.83176 6.43828 8.83176ZM18.3933 8.83176H13.7952C13.3354 8.83176 12.8756 9.29157 12.8756 9.75137V15.2691C12.8756 15.7289 13.3354 16.1887 13.7952 16.1887H18.3933V14.3495H14.7149V10.671H18.3933V8.83176Z" />
</svg>
